<svg xmlns="http://www.w3.org/2000/svg" version="1.0" preserveAspectRatio="xMidYMid meet" viewBox="723.18 304.35 471.82 471.65">

<g transform="translate(0.000000,1080.000000) scale(0.100000,-0.100000)" fill="#000000" stroke="none">
<path d="M9279 7745 c-278 -42 -503 -111 -729 -224 -698 -348 -1173 -996 -1295 -1766 -23 -141 -30 -434 -16 -580 45 -447 223 -889 498 -1238 81 -103 273 -297 373 -377 294 -234 648 -402 1000 -473 172 -35 292 -47 480 -47 186 0 307 12 475 45 823 165 1512 780 1775 1585 81 247 110 437 110 737 0 191 -3 242 -25 365 -86 497 -291 911 -625 1261 -130 136 -235 225 -390 329 -270 182 -539 293 -866 359 -151 30 -173 32 -419 35 -178 2 -287 -2 -346 -11z m551 -140 c188 -22 280 -42 450 -98 168 -55 378 -155 520 -248 195 -128 413 -329 550 -509 70 -92 172 -251 166 -257 -2 -3 -35 9 -72 25 -66 29 -69 32 -105 104 l-37 73 -26 -60 c-38 -88 -37 -87 -102 -122 l-61 -32 -51 39 c-57 43 -119 60 -212 60 l-60 0 0 33 c0 18 -6 42 -14 53 -13 18 -30 19 -221 22 -241 4 -255 0 -255 -69 l0 -40 -60 3 -61 3 -34 85 c-34 84 -63 120 -113 141 -13 5 -204 9 -438 9 -450 0 -454 0 -506 -56 -14 -16 -39 -63 -55 -104 l-28 -75 -395 -5 -395 -5 -51 -27 c-63 -33 -118 -94 -153 -167 l-26 -56 0 -820 0 -820 33 -67 c20 -41 50 -82 78 -107 87 -76 -22 -71 1503 -71 l1366 0 50 24 c59 27 128 99 158 164 22 47 22 47 22 877 l0 830 -23 49 c-12 27 -20 51 -18 53 2 3 22 -5 45 -16 33 -17 48 -35 78 -94 l36 -72 35 76 c34 75 34 76 108 112 l75 37 60 -124 c156 -326 228 -670 216 -1030 -21 -649 -316 -1242 -822 -1651 -371 -300 -815 -467 -1304 -491 -588 -28 -1181 194 -1612 604 -646 613 -865 1550 -557 2382 118 320 293 587 539 825 245 236 518 402 839 509 309 103 631 138 940 101z m159 -851 c46 -10 70 -40 107 -139 18 -48 39 -92 46 -96 15 -10 179 -12 202 -3 12 4 16 20 16 55 l0 49 185 0 185 0 0 -49 c0 -60 2 -61 123 -61 138 -1 208 -42 258 -155 21 -46 23 -68 27 -277 l4 -228 -497 0 -497 0 -71 65 c-82 77 -168 127 -275 163 -67 23 -94 26 -212 26 -120 0 -144 -3 -215 -27 -106 -35 -193 -88 -271 -164 l-64 -63 -495 0 -495 0 0 223 c0 251 6 286 66 355 19 22 53 50 77 61 42 20 58 21 438 21 301 0 399 3 411 13 8 6 28 46 43 87 15 41 34 85 42 98 30 49 51 51 454 52 207 0 391 -3 408 -6z m-235 -734 c105 -27 187 -73 270 -150 123 -116 188 -240 205 -389 28 -255 -74 -480 -285 -620 -111 -74 -209 -103 -354 -103 -99 0 -126 3 -195 27 -171 57 -305 174 -380 329 -55 114 -69 187 -62 319 6 130 33 214 98 311 93 140 236 244 384 280 89 21 227 20 319 -4z m-800 -307 c-18 -38 -41 -97 -50 -133 -19 -69 -24 -229 -12 -312 l8 -48 -425 0 -425 0 0 280 0 280 469 0 469 0 -34 -67z m2184 -210 l-3 -278 -427 -3 -428 -2 8 32 c4 18 7 89 6 158 0 139 -19 220 -73 318 l-29 52 474 0 474 0 -2 -277z m-2180 -427 c78 -157 230 -290 401 -349 119 -42 278 -49 402 -18 120 30 218 82 305 164 77 72 164 190 184 251 l12 36 436 -2 437 -3 0 -215 c-1 -137 -5 -230 -13 -256 -17 -59 -64 -119 -119 -151 l-48 -28 -1343 -3 c-865 -1 -1357 1 -1381 8 -56 15 -114 63 -147 122 l-29 53 -3 238 -3 237 434 0 434 0 41 -84z"/>
<path d="M8281 4290 c-54 -60 -59 -70 -40 -70 12 0 19 3 16 6 -11 12 13 44 33 44 22 0 28 -35 8 -43 -7 -3 -1 -6 14 -6 20 -1 26 3 22 14 -3 8 -1 38 6 65 7 28 10 53 8 55 -2 3 -32 -27 -67 -65z m42 10 c-3 -11 -12 -20 -21 -20 -13 0 -12 3 3 20 10 11 19 20 21 20 1 0 0 -9 -3 -20z"/>
<path d="M8975 4314 c-22 -27 -50 -59 -62 -71 l-22 -23 21 0 c12 0 18 3 15 7 -11 10 24 43 45 43 22 0 23 -13 2 -34 -14 -15 -13 -16 11 -16 16 0 24 4 20 10 -4 6 -1 33 5 60 17 72 9 78 -35 24z m19 -18 c-3 -9 -13 -16 -22 -16 -13 0 -12 3 3 20 20 23 29 21 19 -4z"/>
<path d="M8432 4291 c-7 -33 -18 -62 -25 -64 -6 -3 0 -6 15 -6 20 -1 25 3 22 17 -3 9 2 38 10 65 10 35 11 47 2 47 -7 0 -17 -27 -24 -59z"/>
<path d="M8625 4312 c-3 -22 -12 -51 -20 -65 -13 -26 -13 -27 13 -26 15 0 22 3 16 5 -9 4 -9 17 1 54 7 26 16 53 19 59 4 6 1 11 -8 11 -9 0 -17 -14 -21 -38z"/>
<path d="M8732 4343 c5 -19 -15 -95 -29 -108 -13 -13 -11 -15 14 -15 17 0 23 3 16 8 -9 6 -9 18 0 52 l11 45 11 -55 11 -55 28 48 c15 26 30 47 33 47 7 0 -8 -64 -19 -77 -8 -10 -3 -13 18 -13 19 0 25 3 16 9 -11 6 -10 19 6 64 24 73 7 77 -40 10 -31 -45 -33 -46 -36 -23 -6 52 -13 70 -27 70 -8 0 -14 -3 -13 -7z"/>
<path d="M9111 4333 c-50 -42 -31 -113 29 -113 23 0 33 7 45 30 15 28 14 30 -3 30 -13 0 -18 -7 -18 -22 1 -16 -5 -24 -21 -26 -46 -7 -53 73 -10 103 12 8 16 15 10 15 -6 0 -20 -8 -32 -17z"/>
<path d="M9176 4343 c5 -5 12 -12 15 -16 3 -5 9 -2 12 7 5 12 0 16 -15 16 -12 0 -17 -3 -12 -7z"/>
<path d="M9284 4341 c8 -13 -21 -103 -36 -112 -8 -5 10 -9 45 -9 31 0 57 2 57 4 0 2 3 13 6 23 5 17 5 17 -6 1 -6 -11 -23 -18 -40 -18 -32 0 -35 6 -21 42 20 56 22 78 6 78 -9 0 -14 -4 -11 -9z"/>
<path d="M9340 4346 c0 -2 7 -9 15 -16 12 -10 15 -10 15 4 0 9 -7 16 -15 16 -8 0 -15 -2 -15 -4z"/>
<path d="M9551 4293 c-7 -32 -18 -61 -25 -65 -6 -4 10 -8 37 -8 52 0 82 21 93 65 9 35 -19 65 -60 65 -30 0 -32 -3 -45 -57z m82 26 c15 -25 -10 -78 -40 -85 -34 -9 -37 -2 -23 56 10 43 16 51 33 48 11 -2 25 -10 30 -19z"/>
<path d="M9732 4291 c-7 -33 -18 -62 -25 -64 -6 -3 14 -6 46 -6 47 -1 57 2 57 16 0 13 -3 14 -12 5 -7 -7 -23 -12 -36 -12 -21 0 -24 3 -18 28 3 15 9 38 12 51 3 14 7 28 10 33 3 4 -1 8 -8 8 -9 0 -19 -22 -26 -59z"/>
<path d="M9796 4343 c5 -5 12 -12 16 -18 4 -6 8 -2 8 8 0 9 -7 17 -17 17 -9 0 -12 -3 -7 -7z"/>
<path d="M9885 4339 c-11 -17 -2 -18 19 -3 17 12 17 14 4 14 -9 0 -20 -5 -23 -11z"/>
<path d="M9930 4326 c0 -30 -20 -89 -34 -98 -6 -4 2 -8 17 -8 18 0 26 4 22 11 -9 13 15 101 29 111 6 4 1 8 -11 8 -17 0 -23 -6 -23 -24z"/>
<path d="M9986 4335 c4 -8 8 -15 10 -15 2 0 4 7 4 15 0 8 -4 15 -10 15 -5 0 -7 -7 -4 -15z"/>
<path d="M10062 4291 c-7 -33 -18 -62 -25 -64 -6 -3 14 -6 46 -6 47 -1 57 2 57 16 0 13 -3 14 -12 5 -7 -7 -23 -12 -36 -12 -21 0 -24 3 -18 28 3 15 9 38 12 51 3 14 7 28 10 33 3 4 -1 8 -8 8 -9 0 -19 -22 -26 -59z"/>
<path d="M10126 4343 c5 -5 12 -12 16 -18 4 -6 8 -2 8 8 0 9 -7 17 -17 17 -9 0 -12 -3 -7 -7z"/>
<path d="M10230 4330 c-22 -22 -27 -79 -8 -98 17 -17 53 -15 69 5 13 15 12 15 -7 3 -12 -7 -29 -10 -38 -7 -24 9 -21 72 4 97 11 11 16 20 10 20 -5 0 -19 -9 -30 -20z"/>
<path d="M10301 4333 c7 -10 15 -20 16 -22 2 -2 3 5 3 17 0 14 -6 22 -16 22 -14 0 -15 -3 -3 -17z"/>
<path d="M10375 4339 c-11 -17 -2 -18 19 -3 17 12 17 14 4 14 -9 0 -20 -5 -23 -11z"/>
<path d="M10424 4342 c7 -13 -22 -105 -37 -114 -7 -5 2 -8 23 -8 23 0 30 3 22 9 -11 7 -11 16 -1 52 7 24 17 50 22 57 7 9 3 12 -12 12 -12 0 -20 -4 -17 -8z"/>
<path d="M10470 4346 c0 -2 7 -9 15 -16 12 -10 15 -10 15 4 0 9 -7 16 -15 16 -8 0 -15 -2 -15 -4z"/>
<path d="M10552 4291 c-7 -33 -18 -62 -25 -64 -6 -3 0 -6 15 -6 20 -1 25 3 22 17 -3 9 2 38 10 65 10 35 11 47 2 47 -7 0 -17 -27 -24 -59z"/>
<path d="M10661 4324 c-37 -46 -21 -104 28 -104 36 0 71 37 71 77 0 30 -24 62 -37 49 -3 -3 -1 -6 5 -6 20 0 14 -75 -6 -93 -53 -48 -89 27 -37 78 15 16 19 25 10 25 -7 0 -23 -12 -34 -26z"/>
<path d="M10837 4342 c16 -10 -3 -92 -25 -109 -14 -11 -12 -13 10 -13 20 0 25 4 21 18 -2 10 0 34 5 53 l9 34 23 -53 c12 -29 24 -51 26 -49 2 1 12 31 23 65 13 42 15 62 7 62 -6 0 -12 -14 -13 -30 -1 -17 -6 -37 -11 -46 -7 -12 -13 -5 -26 30 -14 35 -23 46 -39 46 -14 0 -18 -3 -10 -8z"/>
<path d="M9321 4301 c-9 -6 -11 -14 -4 -26 9 -15 11 -14 15 9 3 14 5 26 4 26 0 0 -7 -4 -15 -9z"/>
<path d="M9777 4304 c-4 -4 -7 -14 -7 -23 0 -11 3 -12 11 -4 6 6 10 16 7 23 -2 6 -7 8 -11 4z"/>
<path d="M10107 4304 c-4 -4 -7 -14 -7 -23 0 -11 3 -12 11 -4 6 6 10 16 7 23 -2 6 -7 8 -11 4z"/>
<path d="M9420 4270 c0 -5 11 -10 25 -10 14 0 25 5 25 10 0 6 -11 10 -25 10 -14 0 -25 -4 -25 -10z"/>
<path d="M8389 6391 c-29 -29 -29 -29 -29 -156 0 -127 0 -127 29 -156 l29 -29 147 0 c203 0 215 11 215 185 0 174 -12 185 -215 185 l-147 0 -29 -29z m305 -37 c13 -5 16 -25 16 -113 0 -70 -4 -111 -12 -119 -8 -8 -51 -12 -129 -12 -150 0 -149 -1 -149 129 0 62 4 101 12 109 13 13 232 18 262 6z"/>
<path d="M9440 5984 c-30 -8 -84 -28 -120 -46 -89 -43 -223 -177 -267 -269 -85 -173 -85 -364 -1 -539 79 -163 239 -288 420 -324 96 -20 135 -20 235 -1 206 39 384 195 455 400 23 68 28 96 28 185 0 63 -6 130 -15 164 -42 159 -170 314 -317 385 -46 21 -107 44 -136 50 -73 15 -216 13 -282 -5z m301 -70 c87 -26 144 -60 218 -129 221 -209 227 -550 11 -765 -262 -263 -697 -189 -860 145 -141 287 3 633 306 740 85 30 239 34 325 9z"/>
<path d="M9465 5876 c-81 -20 -156 -65 -220 -130 -100 -102 -145 -212 -145 -351 1 -137 39 -232 138 -336 238 -253 643 -188 799 129 l38 76 0 130 c0 130 0 132 -36 206 -66 138 -189 244 -320 275 -76 18 -185 18 -254 1z m115 -106 l0 -50 -70 0 -70 0 0 28 c0 51 25 68 103 71 l37 1 0 -50z m126 39 c43 -11 44 -13 44 -50 l0 -39 -75 0 -75 0 0 50 c0 49 1 50 31 50 16 0 50 -5 75 -11z m149 -78 c17 -13 22 -22 12 -18 -10 4 -36 7 -58 7 -38 0 -39 1 -39 35 l0 35 28 -17 c15 -9 41 -28 57 -42z m-445 20 c0 -28 -2 -29 -50 -33 -28 -1 -50 -2 -50 -1 0 6 84 63 92 63 4 0 8 -13 8 -29z m474 -77 c9 -24 7 -537 -2 -552 -7 -9 -72 -12 -293 -10 l-284 3 -3 275 c-1 151 0 280 3 287 3 10 69 13 289 13 250 0 285 -2 290 -16z m-604 -44 l0 -50 -35 0 c-19 0 -35 3 -35 6 0 17 55 94 67 94 2 0 3 -22 3 -50z m690 -37 c0 -8 -12 -13 -30 -13 -29 0 -30 1 -30 48 l1 47 29 -35 c17 -19 30 -40 30 -47z m-690 -108 l0 -75 -50 0 c-27 0 -50 -4 -50 -10 0 -5 23 -10 50 -10 l50 0 0 -75 c0 -74 0 -75 -25 -75 -37 0 -73 27 -80 61 -11 47 -8 155 5 208 l12 51 44 0 44 0 0 -75z m693 63 c22 -11 28 -23 38 -81 11 -68 7 -133 -12 -194 -10 -30 -14 -33 -50 -33 l-39 0 0 75 0 75 50 0 c28 0 50 5 50 10 0 6 -22 10 -50 10 l-50 0 0 75 c0 82 6 89 63 63z m-693 -382 c0 -66 21 -86 87 -86 41 0 43 -1 43 -30 0 -42 -18 -38 -83 15 -56 45 -121 131 -111 146 3 5 18 9 35 9 29 0 29 -1 29 -54z m679 14 c-13 -22 -30 -47 -38 -55 -14 -12 -16 -8 -13 41 l4 54 35 0 34 0 -22 -40z m-87 -103 c-12 -13 -40 -33 -62 -46 l-40 -22 0 35 c0 36 0 36 43 36 23 0 49 5 57 10 24 16 25 12 2 -13z m-292 -47 c0 -27 5 -50 10 -50 6 0 10 23 10 50 l0 50 76 0 75 0 -3 -42 -3 -43 -70 -14 c-54 -11 -87 -11 -143 -3 -40 5 -75 12 -78 15 -3 3 -8 24 -11 46 l-6 41 72 0 71 0 0 -50z"/>
<path d="M9515 5613 c-8 -8 -15 -19 -15 -24 0 -5 -10 -9 -22 -9 -39 -1 -86 -54 -75 -84 3 -7 -3 -20 -14 -29 -21 -18 -25 -47 -9 -63 8 -8 6 -20 -6 -41 -15 -26 -16 -34 -5 -62 8 -17 17 -31 22 -31 5 0 15 -15 23 -34 14 -34 45 -59 69 -54 6 1 22 -2 35 -6 14 -5 35 -3 53 5 23 9 33 9 42 0 12 -12 50 -15 60 -5 4 4 20 8 37 9 36 3 60 21 60 46 0 10 12 30 26 44 22 22 25 32 20 63 -4 20 -6 55 -6 78 0 25 -5 46 -15 54 -8 7 -15 25 -15 40 0 33 -40 70 -74 70 -12 0 -25 9 -31 23 -9 19 -18 22 -78 24 -48 1 -72 -3 -82 -14z m63 -159 l3 -151 -25 4 c-16 3 -31 -2 -45 -16 -25 -25 -27 -41 -6 -41 8 0 15 6 15 14 0 19 30 29 46 15 19 -15 18 -63 -1 -79 -12 -10 -21 -10 -41 -1 -15 6 -34 9 -44 6 -23 -7 -52 22 -45 45 4 11 -3 23 -19 33 -37 24 -42 54 -15 83 21 23 22 25 4 44 -20 22 -14 50 11 50 12 0 15 6 11 21 -13 49 44 102 76 70 18 -18 30 -13 24 11 -7 26 10 50 32 46 14 -3 16 -26 19 -154z m77 121 c1 -17 3 -30 5 -29 3 1 15 4 28 8 36 12 72 -17 72 -58 0 -21 6 -36 15 -40 20 -7 19 -36 -2 -52 -17 -12 -17 -14 5 -29 31 -23 30 -69 -3 -91 -14 -9 -25 -26 -25 -39 0 -30 -23 -47 -53 -40 -14 4 -28 2 -31 -4 -10 -16 -32 -14 -50 5 -13 12 -16 39 -16 125 l0 109 25 -6 c28 -7 65 18 65 43 0 19 -13 16 -28 -7 -16 -25 -38 -26 -52 -1 -14 27 -13 114 2 129 21 21 43 9 43 -23z"/>
<path d="M9502 5485 c3 -27 0 -30 -24 -30 -16 1 -28 -3 -28 -7 0 -5 12 -14 28 -21 15 -6 32 -19 39 -27 9 -12 11 -4 10 37 -1 29 -8 58 -15 65 -11 11 -13 8 -10 -17z"/>
<path d="M9637 5344 c-14 -15 -6 -23 21 -21 24 2 27 -1 25 -25 -2 -38 16 -35 24 3 4 24 10 30 25 26 12 -4 18 -1 15 6 -4 13 -98 22 -110 11z"/>
</g>
</svg>